<?xml version="1.0" standalone="no"?><!-- Generator: Adobe Fireworks CS6, Export SVG Extension by Aaron Beall (http://fireworks.abeall.com) . Version: 0.6.1  --><!DOCTYPE svg PUBLIC "-//W3C//DTD SVG 1.1//EN" "http://www.w3.org/Graphics/SVG/1.1/DTD/svg11.dtd"><svg id="Untitled-Page%201" viewBox="0 0 173 140" style="background-color:#ffffff00" version="1.1"	xmlns="http://www.w3.org/2000/svg" xmlns:xlink="http://www.w3.org/1999/xlink" xml:space="preserve"	x="0px" y="0px" width="173px" height="140px">	<g id="Layer%201">		<path d="M 103.81 140 L 71.3333 83.753 L 44.65 83.755 L 45.175 84.755 L 45.3333 84.753 L 77.23 140 L 103.81 140 Z" fill="#8ac6eb"/>		<path d="M 0 47 L 0 140 L 21 140 L 21 82.705 L 0.34 47 L 0 47 Z" fill="#8ac6eb"/>		<path d="M 71 39 L 59.75 59 L 37.25 59 L 26 39 L 37.25 19 L 59.75 19 L 71 39 ZM 92 38.5 L 69.75 0 L 25.25 0 L 3 38.5 L 25.25 77 L 69.75 77 L 92 38.5 Z" fill="#82c6e9"/>		<path d="M 89.7 58.49 L 77 80.4379 L 110.8794 139 L 160.025 139 L 172.745 117.125 L 124.3619 117.1243 L 90.835 59.17 L 89.7 58.49 Z" fill="#82c6e9"/>	</g></svg>